<mxfile host="Electron" modified="2024-06-04T05:16:52.462Z" agent="Mozilla/5.0 (Windows NT 10.0; Win64; x64) AppleWebKit/537.36 (KHTML, like Gecko) draw.io/24.4.13 Chrome/124.0.6367.207 Electron/30.0.6 Safari/537.36" etag="i5pT2roXHsKmbF7QUhRw" version="24.4.13" type="device">
  <diagram name="Page-1" id="K_IrclyN-C9xZ56FpYXM">
    <mxGraphModel dx="479" dy="430" grid="1" gridSize="10" guides="1" tooltips="1" connect="1" arrows="1" fold="1" page="1" pageScale="1" pageWidth="827" pageHeight="1169" math="0" shadow="0">
      <root>
        <mxCell id="0" />
        <mxCell id="1" parent="0" />
        <mxCell id="jP36R_ZXNtEoBTTXfefw-47" value="&lt;font style=&quot;font-size: 8px;&quot;&gt;B) branch&lt;/font&gt;" style="rounded=0;whiteSpace=wrap;html=1;" vertex="1" parent="1">
          <mxGeometry x="160" y="200" width="40" height="40" as="geometry" />
        </mxCell>
        <mxCell id="jP36R_ZXNtEoBTTXfefw-48" style="edgeStyle=orthogonalEdgeStyle;rounded=0;orthogonalLoop=1;jettySize=auto;html=1;exitX=0.5;exitY=1;exitDx=0;exitDy=0;" edge="1" parent="1" source="jP36R_ZXNtEoBTTXfefw-46" target="jP36R_ZXNtEoBTTXfefw-46">
          <mxGeometry relative="1" as="geometry" />
        </mxCell>
        <mxCell id="jP36R_ZXNtEoBTTXfefw-49" value="&lt;font style=&quot;font-size: 8px;&quot;&gt;M) 16 bit&lt;/font&gt;&lt;div style=&quot;font-size: 8px;&quot;&gt;&lt;font style=&quot;font-size: 8px;&quot;&gt;mov/swap/&lt;/font&gt;&lt;/div&gt;&lt;div style=&quot;font-size: 8px;&quot;&gt;&lt;font style=&quot;font-size: 8px;&quot;&gt;...&lt;/font&gt;&lt;/div&gt;" style="rounded=0;whiteSpace=wrap;html=1;" vertex="1" parent="1">
          <mxGeometry x="120" y="200" width="40" height="40" as="geometry" />
        </mxCell>
        <mxCell id="jP36R_ZXNtEoBTTXfefw-51" value="A) 16 bit binop/shift" style="rounded=0;whiteSpace=wrap;html=1;" vertex="1" parent="1">
          <mxGeometry x="40" y="160" width="80" height="80" as="geometry" />
        </mxCell>
        <mxCell id="jP36R_ZXNtEoBTTXfefw-52" value="Major division of the instruction encoding space based on the top 4 bits.&lt;div&gt;8 bit instructions use 3 bits to choose between the 8 registers a/b/c/d/e/f/g/h,&lt;/div&gt;&lt;div&gt;16 bit instructions use 2 bits to choose between the 4 registers ba/dc/fe/hg.&lt;/div&gt;" style="text;html=1;align=center;verticalAlign=middle;whiteSpace=wrap;rounded=0;" vertex="1" parent="1">
          <mxGeometry x="40" y="250" width="410" height="50" as="geometry" />
        </mxCell>
        <mxCell id="jP36R_ZXNtEoBTTXfefw-53" value="1" style="rounded=0;whiteSpace=wrap;html=1;" vertex="1" parent="1">
          <mxGeometry x="267" y="80" width="10" height="20" as="geometry" />
        </mxCell>
        <mxCell id="jP36R_ZXNtEoBTTXfefw-54" value="01" style="rounded=0;whiteSpace=wrap;html=1;" vertex="1" parent="1">
          <mxGeometry x="267" y="100" width="20" height="20" as="geometry" />
        </mxCell>
        <mxCell id="jP36R_ZXNtEoBTTXfefw-55" value="001" style="rounded=0;whiteSpace=wrap;html=1;" vertex="1" parent="1">
          <mxGeometry x="267" y="120" width="30" height="20" as="geometry" />
        </mxCell>
        <mxCell id="jP36R_ZXNtEoBTTXfefw-56" value="000&lt;span style=&quot;background-color: initial;&quot;&gt;1&lt;/span&gt;" style="rounded=0;whiteSpace=wrap;html=1;" vertex="1" parent="1">
          <mxGeometry x="267" y="140" width="40" height="20" as="geometry" />
        </mxCell>
        <mxCell id="jP36R_ZXNtEoBTTXfefw-57" value="000&lt;span style=&quot;background-color: initial;&quot;&gt;0&lt;/span&gt;" style="rounded=0;whiteSpace=wrap;html=1;" vertex="1" parent="1">
          <mxGeometry x="267" y="160" width="40" height="20" as="geometry" />
        </mxCell>
        <mxCell id="jP36R_ZXNtEoBTTXfefw-58" value="&lt;font style=&quot;font-size: 10px;&quot;&gt;r&lt;sub&gt;0&lt;/sub&gt;&lt;/font&gt;" style="rounded=0;whiteSpace=wrap;html=1;fillColor=#dae8fc;strokeColor=#6c8ebf;" vertex="1" parent="1">
          <mxGeometry x="277" y="80" width="10" height="20" as="geometry" />
        </mxCell>
        <mxCell id="jP36R_ZXNtEoBTTXfefw-59" value="binop" style="rounded=0;whiteSpace=wrap;html=1;fillColor=#dae8fc;strokeColor=#6c8ebf;" vertex="1" parent="1">
          <mxGeometry x="287" y="80" width="30" height="40" as="geometry" />
        </mxCell>
        <mxCell id="jP36R_ZXNtEoBTTXfefw-60" value="&lt;font style=&quot;font-size: 10px;&quot;&gt;m&lt;/font&gt;" style="rounded=0;whiteSpace=wrap;html=1;fillColor=#dae8fc;strokeColor=#6c8ebf;" vertex="1" parent="1">
          <mxGeometry x="317" y="80" width="10" height="80" as="geometry" />
        </mxCell>
        <mxCell id="jP36R_ZXNtEoBTTXfefw-61" value="&lt;font style=&quot;font-size: 10px;&quot;&gt;r&lt;sub&gt;0&lt;/sub&gt;&lt;/font&gt;" style="rounded=0;whiteSpace=wrap;html=1;fillColor=#dae8fc;strokeColor=#6c8ebf;" vertex="1" parent="1">
          <mxGeometry x="297" y="120" width="10" height="20" as="geometry" />
        </mxCell>
        <mxCell id="jP36R_ZXNtEoBTTXfefw-62" value="&lt;span style=&quot;font-size: 10px;&quot;&gt;o&lt;/span&gt;" style="rounded=0;whiteSpace=wrap;html=1;fillColor=#dae8fc;strokeColor=#6c8ebf;" vertex="1" parent="1">
          <mxGeometry x="307" y="120" width="10" height="40" as="geometry" />
        </mxCell>
        <mxCell id="jP36R_ZXNtEoBTTXfefw-63" value="&lt;font style=&quot;font-size: 10px;&quot;&gt;r&lt;sub&gt;2&lt;/sub&gt;r&lt;sub&gt;1&lt;/sub&gt;&lt;/font&gt;" style="rounded=0;whiteSpace=wrap;html=1;fillColor=#dae8fc;strokeColor=#6c8ebf;" vertex="1" parent="1">
          <mxGeometry x="327" y="80" width="20" height="80" as="geometry" />
        </mxCell>
        <mxCell id="jP36R_ZXNtEoBTTXfefw-64" value="&lt;font style=&quot;font-size: 10px;&quot;&gt;d&lt;/font&gt;" style="rounded=0;whiteSpace=wrap;html=1;fillColor=#dae8fc;strokeColor=#6c8ebf;" vertex="1" parent="1">
          <mxGeometry x="347" y="80" width="10" height="80" as="geometry" />
        </mxCell>
        <mxCell id="jP36R_ZXNtEoBTTXfefw-65" value="&lt;span style=&quot;font-size: 10px;&quot;&gt;z&lt;/span&gt;" style="rounded=0;whiteSpace=wrap;html=1;fillColor=#dae8fc;strokeColor=#6c8ebf;" vertex="1" parent="1">
          <mxGeometry x="357" y="80" width="10" height="80" as="geometry" />
        </mxCell>
        <mxCell id="jP36R_ZXNtEoBTTXfefw-66" value="&lt;span style=&quot;font-size: 10px;&quot;&gt;imm&lt;sub&gt;6&lt;/sub&gt;/&lt;/span&gt;&lt;div&gt;&lt;span style=&quot;font-size: 10px;&quot;&gt;dest/&lt;/span&gt;&lt;/div&gt;&lt;div&gt;&lt;span style=&quot;font-size: 10px;&quot;&gt;src&lt;/span&gt;&lt;/div&gt;" style="rounded=0;whiteSpace=wrap;html=1;fillColor=#dae8fc;strokeColor=#6c8ebf;" vertex="1" parent="1">
          <mxGeometry x="367" y="80" width="60" height="80" as="geometry" />
        </mxCell>
        <mxCell id="jP36R_ZXNtEoBTTXfefw-67" value="cond" style="rounded=0;whiteSpace=wrap;html=1;fillColor=#dae8fc;strokeColor=#6c8ebf;" vertex="1" parent="1">
          <mxGeometry x="307" y="160" width="40" height="20" as="geometry" />
        </mxCell>
        <mxCell id="jP36R_ZXNtEoBTTXfefw-68" value="offset" style="rounded=0;whiteSpace=wrap;html=1;fillColor=#dae8fc;strokeColor=#6c8ebf;" vertex="1" parent="1">
          <mxGeometry x="347" y="160" width="80" height="20" as="geometry" />
        </mxCell>
        <mxCell id="jP36R_ZXNtEoBTTXfefw-69" value="&lt;font style=&quot;font-size: 6px;&quot;&gt;15&lt;/font&gt;" style="text;html=1;align=center;verticalAlign=middle;whiteSpace=wrap;rounded=0;" vertex="1" parent="1">
          <mxGeometry x="267" y="60" width="10" height="20" as="geometry" />
        </mxCell>
        <mxCell id="jP36R_ZXNtEoBTTXfefw-70" value="&lt;span style=&quot;font-size: 6px;&quot;&gt;14&lt;/span&gt;" style="text;html=1;align=center;verticalAlign=middle;whiteSpace=wrap;rounded=0;" vertex="1" parent="1">
          <mxGeometry x="277" y="60" width="10" height="20" as="geometry" />
        </mxCell>
        <mxCell id="jP36R_ZXNtEoBTTXfefw-71" value="&lt;font style=&quot;font-size: 6px;&quot;&gt;13&lt;/font&gt;" style="text;html=1;align=center;verticalAlign=middle;whiteSpace=wrap;rounded=0;" vertex="1" parent="1">
          <mxGeometry x="287" y="60" width="10" height="20" as="geometry" />
        </mxCell>
        <mxCell id="jP36R_ZXNtEoBTTXfefw-72" value="&lt;span style=&quot;font-size: 6px;&quot;&gt;12&lt;/span&gt;" style="text;html=1;align=center;verticalAlign=middle;whiteSpace=wrap;rounded=0;" vertex="1" parent="1">
          <mxGeometry x="297" y="60" width="10" height="20" as="geometry" />
        </mxCell>
        <mxCell id="jP36R_ZXNtEoBTTXfefw-73" value="&lt;font style=&quot;font-size: 6px;&quot;&gt;11&lt;/font&gt;" style="text;html=1;align=center;verticalAlign=middle;whiteSpace=wrap;rounded=0;" vertex="1" parent="1">
          <mxGeometry x="307" y="60" width="10" height="20" as="geometry" />
        </mxCell>
        <mxCell id="jP36R_ZXNtEoBTTXfefw-74" value="&lt;span style=&quot;font-size: 6px;&quot;&gt;10&lt;/span&gt;" style="text;html=1;align=center;verticalAlign=middle;whiteSpace=wrap;rounded=0;" vertex="1" parent="1">
          <mxGeometry x="317" y="60" width="10" height="20" as="geometry" />
        </mxCell>
        <mxCell id="jP36R_ZXNtEoBTTXfefw-75" value="&lt;font style=&quot;font-size: 6px;&quot;&gt;9&lt;/font&gt;" style="text;html=1;align=center;verticalAlign=middle;whiteSpace=wrap;rounded=0;" vertex="1" parent="1">
          <mxGeometry x="327" y="60" width="10" height="20" as="geometry" />
        </mxCell>
        <mxCell id="jP36R_ZXNtEoBTTXfefw-76" value="&lt;span style=&quot;font-size: 6px;&quot;&gt;8&lt;/span&gt;" style="text;html=1;align=center;verticalAlign=middle;whiteSpace=wrap;rounded=0;" vertex="1" parent="1">
          <mxGeometry x="337" y="60" width="10" height="20" as="geometry" />
        </mxCell>
        <mxCell id="jP36R_ZXNtEoBTTXfefw-77" value="&lt;font style=&quot;font-size: 6px;&quot;&gt;7&lt;/font&gt;" style="text;html=1;align=center;verticalAlign=middle;whiteSpace=wrap;rounded=0;" vertex="1" parent="1">
          <mxGeometry x="347" y="60" width="10" height="20" as="geometry" />
        </mxCell>
        <mxCell id="jP36R_ZXNtEoBTTXfefw-78" value="&lt;span style=&quot;font-size: 6px;&quot;&gt;6&lt;/span&gt;" style="text;html=1;align=center;verticalAlign=middle;whiteSpace=wrap;rounded=0;" vertex="1" parent="1">
          <mxGeometry x="357" y="60" width="10" height="20" as="geometry" />
        </mxCell>
        <mxCell id="jP36R_ZXNtEoBTTXfefw-79" value="&lt;font style=&quot;font-size: 6px;&quot;&gt;5&lt;/font&gt;" style="text;html=1;align=center;verticalAlign=middle;whiteSpace=wrap;rounded=0;" vertex="1" parent="1">
          <mxGeometry x="367" y="60" width="10" height="20" as="geometry" />
        </mxCell>
        <mxCell id="jP36R_ZXNtEoBTTXfefw-80" value="&lt;span style=&quot;font-size: 6px;&quot;&gt;4&lt;/span&gt;" style="text;html=1;align=center;verticalAlign=middle;whiteSpace=wrap;rounded=0;" vertex="1" parent="1">
          <mxGeometry x="377" y="60" width="10" height="20" as="geometry" />
        </mxCell>
        <mxCell id="jP36R_ZXNtEoBTTXfefw-81" value="&lt;font style=&quot;font-size: 6px;&quot;&gt;3&lt;/font&gt;" style="text;html=1;align=center;verticalAlign=middle;whiteSpace=wrap;rounded=0;" vertex="1" parent="1">
          <mxGeometry x="387" y="60" width="10" height="20" as="geometry" />
        </mxCell>
        <mxCell id="jP36R_ZXNtEoBTTXfefw-82" value="&lt;span style=&quot;font-size: 6px;&quot;&gt;2&lt;/span&gt;" style="text;html=1;align=center;verticalAlign=middle;whiteSpace=wrap;rounded=0;" vertex="1" parent="1">
          <mxGeometry x="397" y="60" width="10" height="20" as="geometry" />
        </mxCell>
        <mxCell id="jP36R_ZXNtEoBTTXfefw-83" value="&lt;font style=&quot;font-size: 6px;&quot;&gt;1&lt;/font&gt;" style="text;html=1;align=center;verticalAlign=middle;whiteSpace=wrap;rounded=0;" vertex="1" parent="1">
          <mxGeometry x="407" y="60" width="10" height="20" as="geometry" />
        </mxCell>
        <mxCell id="jP36R_ZXNtEoBTTXfefw-84" value="&lt;span style=&quot;font-size: 6px;&quot;&gt;0&lt;/span&gt;" style="text;html=1;align=center;verticalAlign=middle;whiteSpace=wrap;rounded=0;" vertex="1" parent="1">
          <mxGeometry x="417" y="60" width="10" height="20" as="geometry" />
        </mxCell>
        <mxCell id="jP36R_ZXNtEoBTTXfefw-85" value="a)" style="text;html=1;align=center;verticalAlign=middle;whiteSpace=wrap;rounded=0;" vertex="1" parent="1">
          <mxGeometry x="237" y="80" width="20" height="20" as="geometry" />
        </mxCell>
        <mxCell id="jP36R_ZXNtEoBTTXfefw-86" value="A)" style="text;html=1;align=center;verticalAlign=middle;whiteSpace=wrap;rounded=0;" vertex="1" parent="1">
          <mxGeometry x="237" y="100" width="20" height="20" as="geometry" />
        </mxCell>
        <mxCell id="jP36R_ZXNtEoBTTXfefw-87" value="m)" style="text;html=1;align=center;verticalAlign=middle;whiteSpace=wrap;rounded=0;" vertex="1" parent="1">
          <mxGeometry x="237" y="120" width="20" height="20" as="geometry" />
        </mxCell>
        <mxCell id="jP36R_ZXNtEoBTTXfefw-88" value="M)" style="text;html=1;align=center;verticalAlign=middle;whiteSpace=wrap;rounded=0;" vertex="1" parent="1">
          <mxGeometry x="237" y="140" width="20" height="20" as="geometry" />
        </mxCell>
        <mxCell id="jP36R_ZXNtEoBTTXfefw-89" value="B)" style="text;html=1;align=center;verticalAlign=middle;whiteSpace=wrap;rounded=0;" vertex="1" parent="1">
          <mxGeometry x="237" y="160" width="20" height="20" as="geometry" />
        </mxCell>
        <mxCell id="jP36R_ZXNtEoBTTXfefw-90" value="Bit fields of the major instruction forms.&lt;div&gt;The o bit selects between m&lt;sub&gt;0&lt;/sub&gt;/m&lt;sub&gt;1&amp;nbsp;&lt;/sub&gt;or&amp;nbsp;&lt;span style=&quot;background-color: initial;&quot;&gt;M&lt;/span&gt;&lt;sub style=&quot;background-color: initial;&quot;&gt;0&lt;/sub&gt;&lt;span style=&quot;background-color: initial;&quot;&gt;/M&lt;/span&gt;&lt;sub style=&quot;background-color: initial;&quot;&gt;1&lt;/sub&gt;&lt;span style=&quot;background-color: initial;&quot;&gt;.&lt;/span&gt;&lt;/div&gt;" style="text;html=1;align=center;verticalAlign=middle;whiteSpace=wrap;rounded=0;" vertex="1" parent="1">
          <mxGeometry x="227" y="190" width="240" height="30" as="geometry" />
        </mxCell>
        <mxCell id="jP36R_ZXNtEoBTTXfefw-91" value="= r&lt;sub&gt;8&lt;/sub&gt;" style="text;html=1;align=left;verticalAlign=middle;whiteSpace=wrap;rounded=0;" vertex="1" parent="1">
          <mxGeometry x="500" y="100" width="40" height="20" as="geometry" />
        </mxCell>
        <mxCell id="jP36R_ZXNtEoBTTXfefw-92" value="&lt;font style=&quot;font-size: 10px;&quot;&gt;r&lt;sub&gt;0&lt;/sub&gt;&lt;/font&gt;" style="rounded=0;whiteSpace=wrap;html=1;fillColor=#dae8fc;strokeColor=#6c8ebf;" vertex="1" parent="1">
          <mxGeometry x="490" y="100" width="10" height="20" as="geometry" />
        </mxCell>
        <mxCell id="jP36R_ZXNtEoBTTXfefw-93" value="&lt;font style=&quot;font-size: 10px;&quot;&gt;r&lt;sub&gt;2&lt;/sub&gt;r&lt;sub&gt;1&lt;/sub&gt;&lt;/font&gt;" style="rounded=0;whiteSpace=wrap;html=1;fillColor=#dae8fc;strokeColor=#6c8ebf;" vertex="1" parent="1">
          <mxGeometry x="470" y="100" width="20" height="20" as="geometry" />
        </mxCell>
        <mxCell id="jP36R_ZXNtEoBTTXfefw-94" value="&lt;font style=&quot;font-size: 10px;&quot;&gt;r&lt;sub&gt;2&lt;/sub&gt;r&lt;sub&gt;1&lt;/sub&gt;&lt;/font&gt;" style="rounded=0;whiteSpace=wrap;html=1;fillColor=#dae8fc;strokeColor=#6c8ebf;" vertex="1" parent="1">
          <mxGeometry x="470" y="140" width="20" height="20" as="geometry" />
        </mxCell>
        <mxCell id="jP36R_ZXNtEoBTTXfefw-95" value="= r&lt;sub&gt;16&lt;/sub&gt;" style="text;html=1;align=left;verticalAlign=middle;whiteSpace=wrap;rounded=0;" vertex="1" parent="1">
          <mxGeometry x="500" y="140" width="40" height="20" as="geometry" />
        </mxCell>
        <mxCell id="jP36R_ZXNtEoBTTXfefw-46" value="a) 8 bit binop/shift" style="rounded=0;whiteSpace=wrap;html=1;fillColor=#dae8fc;strokeColor=#6c8ebf;" vertex="1" parent="1">
          <mxGeometry x="40" y="80" width="160" height="80" as="geometry" />
        </mxCell>
        <mxCell id="jP36R_ZXNtEoBTTXfefw-50" value="m) 8 bit mov/ swap/..." style="rounded=0;whiteSpace=wrap;html=1;fillColor=#dae8fc;strokeColor=#6c8ebf;" vertex="1" parent="1">
          <mxGeometry x="120" y="160" width="80" height="40" as="geometry" />
        </mxCell>
      </root>
    </mxGraphModel>
  </diagram>
</mxfile>
